<svg viewBox="0 0 208 65" xmlns="http://www.w3.org/2000/svg"><path d="M92.752 28.883h2.613c1.317 0 2.042.593 2.042 1.668v.036c0 1.018-.762 1.65-1.989 1.65h-2.666v-3.354Zm7.689 9.338-2.637-3.854c1.686-.678 2.612-2.066 2.612-3.923v-.035c0-2.65-1.802-4.231-4.82-4.231h-5.408a.418.418 0 0 0-.406.4.112.112 0 0 0-.003.027v11.86c0 .214.168.394.383.412a.148.148 0 0 0 .035.005h2.151a.106.106 0 0 0 .031-.005.417.417 0 0 0 .373-.406v-3.582h1.981l2.552 3.811a.107.107 0 0 0 .026.026.408.408 0 0 0 .299.154l.021.002 2.442-.004a.135.135 0 0 0 .028.004c.23 0 .418-.187.418-.417a.396.396 0 0 0-.062-.209.158.158 0 0 0-.016-.035ZM107.066 32.494c0-2.15 1.56-3.771 3.628-3.771 2.089 0 3.664 1.637 3.664 3.807v.035c0 2.15-1.56 3.771-3.628 3.771-2.089 0-3.664-1.636-3.664-3.806v-.036Zm3.664-6.53c-3.792 0-6.762 2.884-6.762 6.566v.035c0 3.723 2.892 6.531 6.726 6.531 3.792 0 6.762-2.884 6.762-6.566v-.036c0-3.723-2.892-6.53-6.726-6.53ZM127.832 33.432h-2.975l1.487-3.631 1.488 3.631Zm5.084 4.865-5.088-11.957a.416.416 0 0 0-.351-.247.12.12 0 0 0-.033-.005h-2.13l-.014.001a.418.418 0 0 0-.368.251l-5.089 11.96a.415.415 0 0 0-.034.165c0 .229.187.416.418.417h2.143a.417.417 0 0 0 .373-.248l.007-.014 1.033-2.536h5.122l1.031 2.528a.114.114 0 0 0 .01.019.416.416 0 0 0 .381.251h2.207a.417.417 0 0 0 .387-.571l-.005-.014ZM141.957 36.176h-2.006v-7.293h2.006c2.182 0 3.647 1.466 3.647 3.647v.035c0 2.16-1.465 3.611-3.647 3.611Zm0-9.998h-4.564a.418.418 0 0 0-.415.419v11.867c0 .23.187.417.417.418h4.562c3.908 0 6.745-2.672 6.745-6.352v-.036c0-3.66-2.837-6.316-6.745-6.316ZM158.755 31.189c-2.167-.555-2.606-.812-2.606-1.529v-.035c0-.592.585-.973 1.49-.973.897 0 1.855.34 2.931 1.042a.156.156 0 0 0 .034.015.396.396 0 0 0 .514-.094.114.114 0 0 0 .029-.029l1.098-1.593a.104.104 0 0 0 .015-.034.396.396 0 0 0-.088-.502.134.134 0 0 0-.026-.027c-1.283-.949-2.787-1.43-4.471-1.43-2.638 0-4.481 1.593-4.481 3.874v.036c0 2.637 1.829 3.314 4.221 3.925 2.09.535 2.427.873 2.427 1.475v.036c0 .665-.63 1.062-1.686 1.062-1.191 0-2.279-.416-3.425-1.307a.137.137 0 0 0-.036-.019.4.4 0 0 0-.515.054.126.126 0 0 0-.024.022l-1.244 1.491a.11.11 0 0 0-.017.03.407.407 0 0 0 .07.555 8.08 8.08 0 0 0 5.138 1.826c2.895 0 4.694-1.526 4.694-3.982v-.035c0-2.324-1.616-3.222-4.042-3.854M177.107 26.182a.112.112 0 0 0-.032-.004h-9.728l-.015.001a.418.418 0 0 0-.4.416v1.93c.003.22.179.4.398.411l.017.001h3.381v9.533a.415.415 0 0 0 .417.412h2.141l.014-.001a.419.419 0 0 0 .401-.417V28.937h3.379a.42.42 0 0 0 .417-.419v-1.926a.418.418 0 0 0-.39-.41M191.816 36.212h-6.356V33.82h5.467a.416.416 0 0 0 .409-.383.102.102 0 0 0 .005-.035V31.568a.418.418 0 0 0-.417-.418h-5.464v-2.302h6.27a.416.416 0 0 0 .411-.394c.002-.009.002-.017.002-.025v-1.841a.417.417 0 0 0-.418-.41h-8.803a.418.418 0 0 0-.417.413v11.873c0 .225.18.41.404.417l.012.001h8.901a.076.076 0 0 0 .021-.003.414.414 0 0 0 .39-.417l-.001-1.823.001-.01a.417.417 0 0 0-.417-.417M204.888 30.551v.036c0 1.018-.761 1.65-1.988 1.65h-2.666v-3.354h2.612c1.317 0 2.042.593 2.042 1.668Zm3.05 7.704a.15.15 0 0 0-.016-.034l-2.637-3.854c1.686-.678 2.612-2.066 2.612-3.923v-.035c0-2.65-1.801-4.231-4.819-4.231h-5.408a.418.418 0 0 0-.41.417V38.45l.001.008-.001.007c0 .214.168.394.384.412a.148.148 0 0 0 .035.005h2.151c.01 0 .02-.002.031-.005a.415.415 0 0 0 .373-.406v-3.582h1.981l2.552 3.811a.107.107 0 0 0 .026.026c.08.099.195.156.32.156h2.47c.23 0 .417-.187.417-.417a.397.397 0 0 0-.062-.21ZM31.697 29.102H29.32v6.994h2.377c1.305 0 1.967-.292 2.532-.838.663-.643 1.033-1.441 1.033-2.63 0-1.11-.331-1.928-.935-2.571-.565-.604-1.227-.955-2.63-.955"/><path d="m54.214 38.96-.004-.001.001.001h-3.59a.31.31 0 0 1-.238-.12l-.005.001-4.25-5.355-1.539 1.461v3.701c0 .172-.14.312-.312.312l-.002-.001-2.803.001h-.004v-.001a.311.311 0 0 1-.307-.306h-.001V26.551a.31.31 0 0 1 .308-.311v-.001h2.805l-.001.001.005-.001c.172 0 .312.139.312.311v4.462l4.917-4.688.002.001a.305.305 0 0 1 .212-.086H53.331c.129 0 .233.104.233.232 0 .068-.03.128-.077.17l.002.001-4.965 4.642 5.867 7.293-.002.002c.034.04.057.091.057.148a.232.232 0 0 1-.232.233Zm-17.218-1.812c-1.111 1.091-2.708 1.812-5.221 1.812h-5.553a.312.312 0 0 1-.312-.312l.001-.005.001-12.09-.001-.002c0-.172.139-.311.311-.312h5.553c2.376 0 4.13.662 5.318 1.909 1.091 1.149 1.695 2.708 1.695 4.441 0 1.773-.623 3.41-1.792 4.559Zm-13.531-.182c-.002.002-.001.004-.004.007-1.533 1.275-3.736 2.376-6.393 2.376-4.267 0-7.091-3.039-7.091-6.76 0-3.642 2.844-6.74 6.993-6.74 2.205 0 4.444.797 6.065 1.966.008.006.011.012.016.018a.308.308 0 0 1 .119.24.304.304 0 0 1-.083.208l.001.003-1.617 1.756h-.003a.308.308 0 0 1-.227.1.303.303 0 0 1-.183-.066c-.004-.002-.008.001-.012-.002-1.152-.863-2.57-1.359-3.647-1.359-2.357 0-3.877 1.773-3.877 3.896s1.559 3.896 3.974 3.896c1.388 0 2.827-.77 3.932-1.732.006-.005.012-.006.018-.008a.308.308 0 0 1 .183-.065c.087 0 .166.036.222.094h.001l1.633 1.725-.001.002a.311.311 0 0 1 .087.214.31.31 0 0 1-.106.231ZM32.432.135C14.549.135 0 14.684 0 32.567 0 50.451 14.549 65 32.432 65c17.884 0 32.433-14.549 32.433-32.433C64.865 14.684 50.316.135 32.432.135Z"/></svg>
