<svg viewBox="0 0 72 72" xmlns="http://www.w3.org/2000/svg"><path d="M6.108 3.555a2.556 2.556 0 0 0-2.553 2.553v59.784a2.556 2.556 0 0 0 2.553 2.553h59.784a2.556 2.556 0 0 0 2.553-2.553V6.108a2.556 2.556 0 0 0-2.553-2.553H6.108ZM65.892 72H6.108A6.115 6.115 0 0 1 0 65.892V6.108A6.115 6.115 0 0 1 6.108 0h59.784A6.115 6.115 0 0 1 72 6.108v59.784A6.115 6.115 0 0 1 65.892 72Z"/><path d="M36.165 35.558H29.49v-8.602h6.547c3.209 0 5.178 1.455 5.178 4.28v.086c0 2.524-1.841 4.236-5.05 4.236Zm11.832 14.248-6.526-9.541c3.809-1.412 6.419-4.451 6.419-9.286v-.085c0-6.162-4.236-9.885-11.297-9.885H23.634l.001.002-.008-.001a.727.727 0 0 0-.727.727c0 .009.004.016.004.024l-.004-.002V50.2l.007-.002c0 .013-.007.024-.007.037 0 .385.301.693.68.718l-.002.009h.047l.002.001.002-.001h5.131l.002.001.002-.001h.03l-.003-.005a.723.723 0 0 0 .695-.706h.004v-8.874h5.177l6.209 9.272.023.011a.715.715 0 0 0 .575.303l.004-.001h5.928l.003.001a.728.728 0 0 0 .728-.728.714.714 0 0 0-.148-.417l.008-.012Z"/></svg>
